<svg xmlns="http://www.w3.org/2000/svg" width="888" height="200" viewBox="0 0 888 200">
  <path fill="none" d="M340.135 153.966h207.73v33.796h-207.73z"/>
  <path fill="#88C0D0" d="M342.565 153.967h1.35l21.959 31.004h.09v-31.004h.9v32.129h-1.35l-21.959-31.004h-.09v31.004h-.9v-32.129zm38.43 8.46c6.75 0 10.395 5.805 10.395 12.104 0 6.345-3.645 12.104-10.44 12.104-6.75 0-10.395-5.76-10.395-12.104 0-6.3 3.645-12.104 10.44-12.104zm0 23.308c6.165 0 9.495-5.354 9.495-11.204 0-5.76-3.33-11.205-9.495-11.205-6.255 0-9.54 5.445-9.54 11.205.001 5.85 3.285 11.204 9.54 11.204zm15.03.361h-.9v-23.129h.9v5.715h.09c.855-3.42 3.555-6.435 9.09-6.255v.899c-6.345-.314-9.18 4.636-9.18 9.675v13.095zm28.754-32.129h.9v32.129h-.9v-6.479h-.09c-1.17 4.05-4.545 7.02-9.27 7.02-6.12 0-9.855-5.085-9.855-12.06 0-6.479 3.465-12.149 9.855-12.149 4.905 0 8.189 2.835 9.27 7.02h.09v-15.481zm-9.36 9.359c-6.345 0-8.955 5.896-8.955 11.25 0 5.939 2.97 11.159 8.955 11.159 5.939 0 9.359-5.175 9.359-11.159.001-7.154-3.734-11.25-9.359-11.25z"/>
  <path fill="#2E3440" d="M467.708 163.687c-1.08-4.95-5.175-7.784-9.854-7.784-8.505 0-12.104 7.109-12.104 14.129s3.6 14.13 12.104 14.13c5.939 0 9.719-4.59 10.305-10.305h3.061c-.855 7.874-5.851 12.914-13.365 12.914-10.125 0-15.165-7.965-15.165-16.739s5.04-16.739 15.165-16.739c6.074 0 12.104 3.645 12.914 10.395h-3.061zm28.44 10.799c0 6.659-3.871 12.284-10.98 12.284s-10.979-5.625-10.979-12.284c0-6.66 3.869-12.284 10.979-12.284s10.98 5.624 10.98 12.284zm-19.125 0c0 4.949 2.699 9.899 8.145 9.899s8.145-4.95 8.145-9.899c0-4.95-2.699-9.899-8.145-9.899s-8.145 4.949-8.145 9.899zm43.784 11.61h-2.609v-4.41h-.09c-1.215 3.016-4.904 5.085-8.279 5.085-7.064 0-10.439-5.715-10.439-12.284 0-6.57 3.375-12.284 10.439-12.284 3.465 0 6.84 1.755 8.055 5.084h.09v-13.319h2.834v32.128zm-10.979-1.71c6.029 0 8.145-5.085 8.145-9.899 0-4.815-2.115-9.899-8.145-9.899-5.4 0-7.605 5.084-7.605 9.899 0 4.814 2.205 9.899 7.605 9.899zm16.11-14.4c.27-5.444 4.094-7.784 9.404-7.784 4.096 0 8.549 1.26 8.549 7.469v12.33c0 1.08.541 1.71 1.666 1.71.314 0 .674-.09.9-.18v2.385c-.631.135-1.08.18-1.846.18-2.879 0-3.33-1.62-3.33-4.05h-.09c-1.98 3.015-4.004 4.725-8.459 4.725-4.275 0-7.785-2.114-7.785-6.795 0-6.524 6.346-6.749 12.465-7.47 2.34-.27 3.645-.585 3.645-3.149 0-3.825-2.744-4.77-6.074-4.77-3.51 0-6.121 1.619-6.211 5.399h-2.834zm15.119 3.42h-.09c-.359.675-1.619.9-2.385 1.035-4.814.854-10.801.81-10.801 5.354 0 2.835 2.521 4.59 5.176 4.59 4.32 0 8.145-2.745 8.1-7.29v-3.689z"/>
  <g fill="#2E3440">
    <path d="M466.56 135.966l-43.391-55.545V65.009l48.09 62.172h25.844V39.636h-43.465l-9.396-9.399h62.257v105.729z"/>
    <path d="M421.44 30.237l43.393 55.541v15.41l-48.091-62.167h-25.843v87.544h43.463l9.4 9.401h-62.261V30.237z"/>
  </g>
</svg>
